solid OpenSCAD_Model
  facet normal 1 -0 0
    outer loop
      vertex 28 -20 8
      vertex 28 20 -8
      vertex 28 20 8
    endloop
  endfacet
  facet normal 1 0 0
    outer loop
      vertex 28 20 -8
      vertex 28 -20 8
      vertex 28 -20 -8
    endloop
  endfacet
  facet normal 0 0 1
    outer loop
      vertex 13.8 -11.8 8
      vertex 28 20 8
      vertex 13.8 15.8 8
    endloop
  endfacet
  facet normal 0 0 1
    outer loop
      vertex 28 20 8
      vertex -13.8 15.8 8
      vertex 13.8 15.8 8
    endloop
  endfacet
  facet normal 0 0 1
    outer loop
      vertex -13.8 15.8 8
      vertex -28 20 8
      vertex -13.8 -11.8 8
    endloop
  endfacet
  facet normal -0 0 1
    outer loop
      vertex -28 20 8
      vertex -13.8 15.8 8
      vertex 28 20 8
    endloop
  endfacet
  facet normal 0 0 1
    outer loop
      vertex 28 20 8
      vertex 13.8 -11.8 8
      vertex 28 -20 8
    endloop
  endfacet
  facet normal -0 0 1
    outer loop
      vertex -13.8 -11.8 8
      vertex 28 -20 8
      vertex 13.8 -11.8 8
    endloop
  endfacet
  facet normal 0 0 1
    outer loop
      vertex -13.8 -11.8 8
      vertex -28 -20 8
      vertex 28 -20 8
    endloop
  endfacet
  facet normal 0 0 1
    outer loop
      vertex -28 -20 8
      vertex -13.8 -11.8 8
      vertex -28 20 8
    endloop
  endfacet
  facet normal 0 0 -1
    outer loop
      vertex -28 -20 -8
      vertex 28 20 -8
      vertex 28 -20 -8
    endloop
  endfacet
  facet normal -0 0 -1
    outer loop
      vertex 28 20 -8
      vertex -28 -20 -8
      vertex -28 20 -8
    endloop
  endfacet
  facet normal -1 0 0
    outer loop
      vertex -28 20 -8
      vertex -28 3 0
      vertex -28 20 8
    endloop
  endfacet
  facet normal -1 0 0
    outer loop
      vertex -28 20 -8
      vertex -28 2.85317 -0.927051
      vertex -28 3 0
    endloop
  endfacet
  facet normal -1 0 0
    outer loop
      vertex -28 20 -8
      vertex -28 2.42705 -1.76336
      vertex -28 2.85317 -0.927051
    endloop
  endfacet
  facet normal -1 0 0
    outer loop
      vertex -28 20 -8
      vertex -28 1.76336 -2.42705
      vertex -28 2.42705 -1.76336
    endloop
  endfacet
  facet normal -1 0 0
    outer loop
      vertex -28 20 -8
      vertex -28 0.927051 -2.85317
      vertex -28 1.76336 -2.42705
    endloop
  endfacet
  facet normal -1 0 0
    outer loop
      vertex -28 20 -8
      vertex -28 0 -3
      vertex -28 0.927051 -2.85317
    endloop
  endfacet
  facet normal -1 0 0
    outer loop
      vertex -28 -20 -8
      vertex -28 0 -3
      vertex -28 20 -8
    endloop
  endfacet
  facet normal -1 -0 0
    outer loop
      vertex -28 -2.85317 -0.927051
      vertex -28 -20 -8
      vertex -28 -3 0
    endloop
  endfacet
  facet normal -1 -0 0
    outer loop
      vertex -28 -2.42705 -1.76336
      vertex -28 -20 -8
      vertex -28 -2.85317 -0.927051
    endloop
  endfacet
  facet normal -1 -0 0
    outer loop
      vertex -28 -1.76336 -2.42705
      vertex -28 -20 -8
      vertex -28 -2.42705 -1.76336
    endloop
  endfacet
  facet normal -1 -0 0
    outer loop
      vertex -28 -0.927051 -2.85317
      vertex -28 -20 -8
      vertex -28 -1.76336 -2.42705
    endloop
  endfacet
  facet normal -1 -0 0
    outer loop
      vertex -28 0 -3
      vertex -28 -20 -8
      vertex -28 -0.927051 -2.85317
    endloop
  endfacet
  facet normal -1 0 0
    outer loop
      vertex -28 2.85317 0.927051
      vertex -28 20 8
      vertex -28 3 0
    endloop
  endfacet
  facet normal -1 0 0
    outer loop
      vertex -28 2.42705 1.76336
      vertex -28 20 8
      vertex -28 2.85317 0.927051
    endloop
  endfacet
  facet normal -1 0 0
    outer loop
      vertex -28 1.76336 2.42705
      vertex -28 20 8
      vertex -28 2.42705 1.76336
    endloop
  endfacet
  facet normal -1 0 0
    outer loop
      vertex -28 0.927051 2.85317
      vertex -28 20 8
      vertex -28 1.76336 2.42705
    endloop
  endfacet
  facet normal -1 0 0
    outer loop
      vertex -28 0 3
      vertex -28 20 8
      vertex -28 0.927051 2.85317
    endloop
  endfacet
  facet normal -1 0 0
    outer loop
      vertex -28 -20 8
      vertex -28 0 3
      vertex -28 -0.927051 2.85317
    endloop
  endfacet
  facet normal -1 0 0
    outer loop
      vertex -28 -20 8
      vertex -28 -3 0
      vertex -28 -20 -8
    endloop
  endfacet
  facet normal -1 0 0
    outer loop
      vertex -28 -3 0
      vertex -28 -20 8
      vertex -28 -2.85317 0.927051
    endloop
  endfacet
  facet normal -1 0 0
    outer loop
      vertex -28 -2.85317 0.927051
      vertex -28 -20 8
      vertex -28 -2.42705 1.76336
    endloop
  endfacet
  facet normal -1 0 0
    outer loop
      vertex -28 0 3
      vertex -28 -20 8
      vertex -28 20 8
    endloop
  endfacet
  facet normal -1 0 0
    outer loop
      vertex -28 -1.76336 2.42705
      vertex -28 -20 8
      vertex -28 -0.927051 2.85317
    endloop
  endfacet
  facet normal -1 0 0
    outer loop
      vertex -28 -2.42705 1.76336
      vertex -28 -20 8
      vertex -28 -1.76336 2.42705
    endloop
  endfacet
  facet normal 0 1 -0
    outer loop
      vertex 28 20 -8
      vertex -28 20 8
      vertex 28 20 8
    endloop
  endfacet
  facet normal 0 1 0
    outer loop
      vertex -28 20 8
      vertex 28 20 -8
      vertex -28 20 -8
    endloop
  endfacet
  facet normal 0 -1 0
    outer loop
      vertex -28 -20 8
      vertex -4.5 -20 -2.5
      vertex 28 -20 8
    endloop
  endfacet
  facet normal 0 -1 0
    outer loop
      vertex -28 -20 -8
      vertex -4.5 -20 -2.5
      vertex -28 -20 8
    endloop
  endfacet
  facet normal 0 -1 -0
    outer loop
      vertex -4.5 -20 -6
      vertex -28 -20 -8
      vertex 4.5 -20 -6
    endloop
  endfacet
  facet normal 0 -1 -0
    outer loop
      vertex -4.5 -20 -2.5
      vertex -28 -20 -8
      vertex -4.5 -20 -6
    endloop
  endfacet
  facet normal 0 -1 0
    outer loop
      vertex 4.5 -20 -2.5
      vertex 28 -20 8
      vertex -4.5 -20 -2.5
    endloop
  endfacet
  facet normal 0 -1 0
    outer loop
      vertex 28 -20 -8
      vertex 4.5 -20 -2.5
      vertex 4.5 -20 -6
    endloop
  endfacet
  facet normal 0 -1 0
    outer loop
      vertex 4.5 -20 -2.5
      vertex 28 -20 -8
      vertex 28 -20 8
    endloop
  endfacet
  facet normal 0 -1 0
    outer loop
      vertex 28 -20 -8
      vertex 4.5 -20 -6
      vertex -28 -20 -8
    endloop
  endfacet
  facet normal 1 -0 0
    outer loop
      vertex 13.8 -11.8 8.05
      vertex 13.8 15.8 8
      vertex 13.8 15.8 8.05
    endloop
  endfacet
  facet normal 1 0 0
    outer loop
      vertex 13.8 15.8 8
      vertex 13.8 -11.8 8.05
      vertex 13.8 -11.8 8
    endloop
  endfacet
  facet normal -0 0 1
    outer loop
      vertex -13.8 15.8 8.05
      vertex 13.8 -11.8 8.05
      vertex 13.8 15.8 8.05
    endloop
  endfacet
  facet normal 0 0 1
    outer loop
      vertex 13.8 -11.8 8.05
      vertex -13.8 15.8 8.05
      vertex -13.8 -11.8 8.05
    endloop
  endfacet
  facet normal -1 0 0
    outer loop
      vertex -13.8 -11.8 8
      vertex -13.8 15.8 8.05
      vertex -13.8 15.8 8
    endloop
  endfacet
  facet normal -1 -0 0
    outer loop
      vertex -13.8 15.8 8.05
      vertex -13.8 -11.8 8
      vertex -13.8 -11.8 8.05
    endloop
  endfacet
  facet normal 0 1 -0
    outer loop
      vertex 13.8 15.8 8
      vertex -13.8 15.8 8.05
      vertex 13.8 15.8 8.05
    endloop
  endfacet
  facet normal 0 1 0
    outer loop
      vertex -13.8 15.8 8.05
      vertex 13.8 15.8 8
      vertex -13.8 15.8 8
    endloop
  endfacet
  facet normal 0 -1 0
    outer loop
      vertex -13.8 -11.8 8
      vertex 13.8 -11.8 8.05
      vertex -13.8 -11.8 8.05
    endloop
  endfacet
  facet normal 0 -1 -0
    outer loop
      vertex 13.8 -11.8 8.05
      vertex -13.8 -11.8 8
      vertex 13.8 -11.8 8
    endloop
  endfacet
  facet normal -1 0 0
    outer loop
      vertex -4.5 -22 -6
      vertex -4.5 -20 -2.5
      vertex -4.5 -20 -6
    endloop
  endfacet
  facet normal -1 -0 0
    outer loop
      vertex -4.5 -20 -2.5
      vertex -4.5 -22 -6
      vertex -4.5 -22 -2.5
    endloop
  endfacet
  facet normal 1 -0 0
    outer loop
      vertex 4.5 -22 -2.5
      vertex 4.5 -20 -6
      vertex 4.5 -20 -2.5
    endloop
  endfacet
  facet normal 1 0 0
    outer loop
      vertex 4.5 -20 -6
      vertex 4.5 -22 -2.5
      vertex 4.5 -22 -6
    endloop
  endfacet
  facet normal 0 -1 0
    outer loop
      vertex -4.5 -22 -6
      vertex 4.5 -22 -2.5
      vertex -4.5 -22 -2.5
    endloop
  endfacet
  facet normal 0 -1 -0
    outer loop
      vertex 4.5 -22 -2.5
      vertex -4.5 -22 -6
      vertex 4.5 -22 -6
    endloop
  endfacet
  facet normal 0 0 -1
    outer loop
      vertex -4.5 -22 -6
      vertex 4.5 -20 -6
      vertex 4.5 -22 -6
    endloop
  endfacet
  facet normal -0 0 -1
    outer loop
      vertex 4.5 -20 -6
      vertex -4.5 -22 -6
      vertex -4.5 -20 -6
    endloop
  endfacet
  facet normal -0 0 1
    outer loop
      vertex -4.5 -20 -2.5
      vertex 4.5 -22 -2.5
      vertex 4.5 -20 -2.5
    endloop
  endfacet
  facet normal 0 0 1
    outer loop
      vertex 4.5 -22 -2.5
      vertex -4.5 -20 -2.5
      vertex -4.5 -22 -2.5
    endloop
  endfacet
  facet normal 0 0.707107 -0.707107
    outer loop
      vertex -28 1.76336 -2.42705
      vertex -29.5 2.42705 -1.76336
      vertex -28 2.42705 -1.76336
    endloop
  endfacet
  facet normal 0 0.707107 -0.707107
    outer loop
      vertex -29.5 2.42705 -1.76336
      vertex -28 1.76336 -2.42705
      vertex -29.5 1.76336 -2.42705
    endloop
  endfacet
  facet normal 0 -0.987688 -0.156434
    outer loop
      vertex -29.5 -2.85317 -0.927051
      vertex -28 -3 0
      vertex -29.5 -3 0
    endloop
  endfacet
  facet normal 0 -0.987688 -0.156434
    outer loop
      vertex -28 -3 0
      vertex -29.5 -2.85317 -0.927051
      vertex -28 -2.85317 -0.927051
    endloop
  endfacet
  facet normal 0 0.891007 -0.45399
    outer loop
      vertex -28 2.42705 -1.76336
      vertex -29.5 2.85317 -0.927051
      vertex -28 2.85317 -0.927051
    endloop
  endfacet
  facet normal 0 0.891007 -0.45399
    outer loop
      vertex -29.5 2.85317 -0.927051
      vertex -28 2.42705 -1.76336
      vertex -29.5 2.42705 -1.76336
    endloop
  endfacet
  facet normal 0 0.156434 -0.987688
    outer loop
      vertex -29.5 0 -3
      vertex -28 0.927051 -2.85317
      vertex -28 0 -3
    endloop
  endfacet
  facet normal 0 0.156434 -0.987688
    outer loop
      vertex -28 0.927051 -2.85317
      vertex -29.5 0 -3
      vertex -29.5 0.927051 -2.85317
    endloop
  endfacet
  facet normal 0 0.891007 0.45399
    outer loop
      vertex -28 2.85317 0.927051
      vertex -29.5 2.42705 1.76336
      vertex -28 2.42705 1.76336
    endloop
  endfacet
  facet normal 0 0.891007 0.45399
    outer loop
      vertex -29.5 2.42705 1.76336
      vertex -28 2.85317 0.927051
      vertex -29.5 2.85317 0.927051
    endloop
  endfacet
  facet normal 0 -0.891007 -0.45399
    outer loop
      vertex -29.5 -2.42705 -1.76336
      vertex -28 -2.85317 -0.927051
      vertex -29.5 -2.85317 -0.927051
    endloop
  endfacet
  facet normal 0 -0.891007 -0.45399
    outer loop
      vertex -28 -2.85317 -0.927051
      vertex -29.5 -2.42705 -1.76336
      vertex -28 -2.42705 -1.76336
    endloop
  endfacet
  facet normal 0 -0.707107 -0.707107
    outer loop
      vertex -29.5 -1.76336 -2.42705
      vertex -28 -2.42705 -1.76336
      vertex -29.5 -2.42705 -1.76336
    endloop
  endfacet
  facet normal 0 -0.707107 -0.707107
    outer loop
      vertex -28 -2.42705 -1.76336
      vertex -29.5 -1.76336 -2.42705
      vertex -28 -1.76336 -2.42705
    endloop
  endfacet
  facet normal -1 0 0
    outer loop
      vertex -29.5 2.85317 -0.927051
      vertex -29.5 2.85317 0.927051
      vertex -29.5 3 0
    endloop
  endfacet
  facet normal -1 0 0
    outer loop
      vertex -29.5 2.42705 -1.76336
      vertex -29.5 2.85317 0.927051
      vertex -29.5 2.85317 -0.927051
    endloop
  endfacet
  facet normal -1 0 0
    outer loop
      vertex -29.5 2.42705 -1.76336
      vertex -29.5 2.42705 1.76336
      vertex -29.5 2.85317 0.927051
    endloop
  endfacet
  facet normal -1 0 0
    outer loop
      vertex -29.5 1.76336 -2.42705
      vertex -29.5 2.42705 1.76336
      vertex -29.5 2.42705 -1.76336
    endloop
  endfacet
  facet normal -1 0 0
    outer loop
      vertex -29.5 1.76336 -2.42705
      vertex -29.5 1.76336 2.42705
      vertex -29.5 2.42705 1.76336
    endloop
  endfacet
  facet normal -1 0 0
    outer loop
      vertex -29.5 0.927051 -2.85317
      vertex -29.5 1.76336 2.42705
      vertex -29.5 1.76336 -2.42705
    endloop
  endfacet
  facet normal -1 0 0
    outer loop
      vertex -29.5 0.927051 -2.85317
      vertex -29.5 0.927051 2.85317
      vertex -29.5 1.76336 2.42705
    endloop
  endfacet
  facet normal -1 0 0
    outer loop
      vertex -29.5 0 -3
      vertex -29.5 0.927051 2.85317
      vertex -29.5 0.927051 -2.85317
    endloop
  endfacet
  facet normal -1 0 0
    outer loop
      vertex -29.5 0 -3
      vertex -29.5 0 3
      vertex -29.5 0.927051 2.85317
    endloop
  endfacet
  facet normal -1 0 0
    outer loop
      vertex -29.5 -0.927051 -2.85317
      vertex -29.5 0 3
      vertex -29.5 0 -3
    endloop
  endfacet
  facet normal -1 0 0
    outer loop
      vertex -29.5 -0.927051 -2.85317
      vertex -29.5 -0.927051 2.85317
      vertex -29.5 0 3
    endloop
  endfacet
  facet normal -1 0 0
    outer loop
      vertex -29.5 -1.76336 -2.42705
      vertex -29.5 -0.927051 2.85317
      vertex -29.5 -0.927051 -2.85317
    endloop
  endfacet
  facet normal -1 0 0
    outer loop
      vertex -29.5 -1.76336 -2.42705
      vertex -29.5 -1.76336 2.42705
      vertex -29.5 -0.927051 2.85317
    endloop
  endfacet
  facet normal -1 0 0
    outer loop
      vertex -29.5 -2.42705 -1.76336
      vertex -29.5 -1.76336 2.42705
      vertex -29.5 -1.76336 -2.42705
    endloop
  endfacet
  facet normal -1 0 0
    outer loop
      vertex -29.5 -2.42705 -1.76336
      vertex -29.5 -2.42705 1.76336
      vertex -29.5 -1.76336 2.42705
    endloop
  endfacet
  facet normal -1 0 0
    outer loop
      vertex -29.5 -2.85317 -0.927051
      vertex -29.5 -2.42705 1.76336
      vertex -29.5 -2.42705 -1.76336
    endloop
  endfacet
  facet normal -1 0 0
    outer loop
      vertex -29.5 -2.85317 -0.927051
      vertex -29.5 -2.85317 0.927051
      vertex -29.5 -2.42705 1.76336
    endloop
  endfacet
  facet normal -1 0 -0
    outer loop
      vertex -29.5 -2.85317 0.927051
      vertex -29.5 -2.85317 -0.927051
      vertex -29.5 -3 0
    endloop
  endfacet
  facet normal 0 -0.987688 0.156434
    outer loop
      vertex -29.5 -3 0
      vertex -28 -2.85317 0.927051
      vertex -29.5 -2.85317 0.927051
    endloop
  endfacet
  facet normal 0 -0.987688 0.156434
    outer loop
      vertex -28 -2.85317 0.927051
      vertex -29.5 -3 0
      vertex -28 -3 0
    endloop
  endfacet
  facet normal 0 0.987688 -0.156434
    outer loop
      vertex -28 2.85317 -0.927051
      vertex -29.5 3 0
      vertex -28 3 0
    endloop
  endfacet
  facet normal 0 0.987688 -0.156434
    outer loop
      vertex -29.5 3 0
      vertex -28 2.85317 -0.927051
      vertex -29.5 2.85317 -0.927051
    endloop
  endfacet
  facet normal -0 0.45399 0.891007
    outer loop
      vertex -29.5 1.76336 2.42705
      vertex -28 0.927051 2.85317
      vertex -28 1.76336 2.42705
    endloop
  endfacet
  facet normal 0 0.45399 0.891007
    outer loop
      vertex -28 0.927051 2.85317
      vertex -29.5 1.76336 2.42705
      vertex -29.5 0.927051 2.85317
    endloop
  endfacet
  facet normal 0 -0.156434 -0.987688
    outer loop
      vertex -29.5 -0.927051 -2.85317
      vertex -28 0 -3
      vertex -28 -0.927051 -2.85317
    endloop
  endfacet
  facet normal -0 -0.156434 -0.987688
    outer loop
      vertex -28 0 -3
      vertex -29.5 -0.927051 -2.85317
      vertex -29.5 0 -3
    endloop
  endfacet
  facet normal 0 0.45399 -0.891007
    outer loop
      vertex -29.5 0.927051 -2.85317
      vertex -28 1.76336 -2.42705
      vertex -28 0.927051 -2.85317
    endloop
  endfacet
  facet normal 0 0.45399 -0.891007
    outer loop
      vertex -28 1.76336 -2.42705
      vertex -29.5 0.927051 -2.85317
      vertex -29.5 1.76336 -2.42705
    endloop
  endfacet
  facet normal -0 0.156434 0.987688
    outer loop
      vertex -29.5 0.927051 2.85317
      vertex -28 0 3
      vertex -28 0.927051 2.85317
    endloop
  endfacet
  facet normal 0 0.156434 0.987688
    outer loop
      vertex -28 0 3
      vertex -29.5 0.927051 2.85317
      vertex -29.5 0 3
    endloop
  endfacet
  facet normal 0 -0.156434 0.987688
    outer loop
      vertex -29.5 0 3
      vertex -28 -0.927051 2.85317
      vertex -28 0 3
    endloop
  endfacet
  facet normal 0 -0.156434 0.987688
    outer loop
      vertex -28 -0.927051 2.85317
      vertex -29.5 0 3
      vertex -29.5 -0.927051 2.85317
    endloop
  endfacet
  facet normal 0 -0.45399 -0.891007
    outer loop
      vertex -29.5 -1.76336 -2.42705
      vertex -28 -0.927051 -2.85317
      vertex -28 -1.76336 -2.42705
    endloop
  endfacet
  facet normal -0 -0.45399 -0.891007
    outer loop
      vertex -28 -0.927051 -2.85317
      vertex -29.5 -1.76336 -2.42705
      vertex -29.5 -0.927051 -2.85317
    endloop
  endfacet
  facet normal 0 0.987688 0.156434
    outer loop
      vertex -28 3 0
      vertex -29.5 2.85317 0.927051
      vertex -28 2.85317 0.927051
    endloop
  endfacet
  facet normal 0 0.987688 0.156434
    outer loop
      vertex -29.5 2.85317 0.927051
      vertex -28 3 0
      vertex -29.5 3 0
    endloop
  endfacet
  facet normal 0 -0.891007 0.45399
    outer loop
      vertex -29.5 -2.85317 0.927051
      vertex -28 -2.42705 1.76336
      vertex -29.5 -2.42705 1.76336
    endloop
  endfacet
  facet normal 0 -0.891007 0.45399
    outer loop
      vertex -28 -2.42705 1.76336
      vertex -29.5 -2.85317 0.927051
      vertex -28 -2.85317 0.927051
    endloop
  endfacet
  facet normal 0 -0.707107 0.707107
    outer loop
      vertex -29.5 -2.42705 1.76336
      vertex -28 -1.76336 2.42705
      vertex -29.5 -1.76336 2.42705
    endloop
  endfacet
  facet normal 0 -0.707107 0.707107
    outer loop
      vertex -28 -1.76336 2.42705
      vertex -29.5 -2.42705 1.76336
      vertex -28 -2.42705 1.76336
    endloop
  endfacet
  facet normal 0 -0.45399 0.891007
    outer loop
      vertex -29.5 -0.927051 2.85317
      vertex -28 -1.76336 2.42705
      vertex -28 -0.927051 2.85317
    endloop
  endfacet
  facet normal 0 -0.45399 0.891007
    outer loop
      vertex -28 -1.76336 2.42705
      vertex -29.5 -0.927051 2.85317
      vertex -29.5 -1.76336 2.42705
    endloop
  endfacet
  facet normal 0 0.707107 0.707107
    outer loop
      vertex -28 2.42705 1.76336
      vertex -29.5 1.76336 2.42705
      vertex -28 1.76336 2.42705
    endloop
  endfacet
  facet normal 0 0.707107 0.707107
    outer loop
      vertex -29.5 1.76336 2.42705
      vertex -28 2.42705 1.76336
      vertex -29.5 2.42705 1.76336
    endloop
  endfacet
endsolid OpenSCAD_Model
